<svg xmlns="http://www.w3.org/2000/svg" viewBox="0 0 640 400" role="img" aria-label="Territory Clash Live">
  <defs>
    <linearGradient id="bg" x1="0" y1="0" x2="1" y2="1">
      <stop offset="0" stop-color="#39151d"/>
      <stop offset=".52" stop-color="#262a32"/>
      <stop offset="1" stop-color="#0a4462"/>
    </linearGradient>
    <linearGradient id="gold" x1="0" x2="1">
      <stop stop-color="#ffe19a"/>
      <stop offset="1" stop-color="#ffb23f"/>
    </linearGradient>
  </defs>
  <rect width="640" height="400" fill="url(#bg)"/>
  <path d="M0 228c94-54 174-15 248 0 78 17 139-46 204-28 62 17 93 78 188 45v155H0z" fill="#856246" opacity=".78"/>
  <rect x="0" y="0" width="300" height="400" fill="#cf3845" opacity=".32"/>
  <rect x="316" y="0" width="324" height="400" fill="#2da8e6" opacity=".34"/>
  <path d="M310 34c-17 70 11 121 0 183-13 72 16 105 0 149" fill="none" stroke="#f7fbff" stroke-width="7" stroke-linecap="round" stroke-dasharray="18 18"/>
  <g fill="#ff5656" stroke="#fff" stroke-width="4">
    <circle cx="92" cy="164" r="20"/><circle cx="142" cy="190" r="17"/><circle cx="206" cy="252" r="21"/><circle cx="248" cy="135" r="16"/>
  </g>
  <g fill="#45c8ff" stroke="#fff" stroke-width="4">
    <circle cx="536" cy="156" r="20"/><circle cx="476" cy="205" r="17"/><circle cx="410" cy="257" r="21"/><circle cx="366" cy="132" r="16"/>
  </g>
  <rect x="42" y="38" width="556" height="86" fill="rgba(0,0,0,.42)" stroke="rgba(255,255,255,.28)" stroke-width="2"/>
  <text x="320" y="77" text-anchor="middle" fill="#fff" font-family="Arial, sans-serif" font-size="34" font-weight="800">TERRITORY CLASH</text>
  <text x="320" y="108" text-anchor="middle" fill="url(#gold)" font-family="Arial, sans-serif" font-size="24" font-weight="800">LIVE BARRAGE WAR</text>
</svg>
