<svg xmlns="http://www.w3.org/2000/svg" viewBox="0 0 1200 675">
  <defs><linearGradient id="bg" x1="0" x2="1"><stop stop-color="#1e1b4b"/><stop offset="1" stop-color="#7c2d12"/></linearGradient><filter id="s"><feDropShadow dx="0" dy="12" stdDeviation="10" flood-opacity=".35"/></filter></defs>
  <rect width="1200" height="675" rx="42" fill="url(#bg)"/>
  <text x="78" y="145" fill="#fbbf24" font-family="Arial, sans-serif" font-size="38" font-weight="800">BLOCK PUZZLE</text>
  <text x="78" y="230" fill="white" font-family="Arial, sans-serif" font-size="88" font-weight="900">Block Games</text>
  <text x="82" y="292" fill="#fde68a" font-family="Arial, sans-serif" font-size="34" font-weight="600">Drag, stack, clear rows, and chase a better score.</text>
  <g filter="url(#s)">
    <rect x="775" y="128" width="92" height="92" rx="18" fill="#38bdf8"/><rect x="875" y="128" width="92" height="92" rx="18" fill="#38bdf8"/><rect x="775" y="228" width="92" height="92" rx="18" fill="#38bdf8"/>
    <rect x="650" y="360" width="92" height="92" rx="18" fill="#fb7185"/><rect x="750" y="360" width="92" height="92" rx="18" fill="#fb7185"/><rect x="850" y="360" width="92" height="92" rx="18" fill="#fb7185"/>
    <rect x="510" y="208" width="92" height="92" rx="18" fill="#a3e635"/><rect x="510" y="308" width="92" height="92" rx="18" fill="#a3e635"/><rect x="610" y="308" width="92" height="92" rx="18" fill="#a3e635"/>
  </g>
  <rect x="82" y="545" width="245" height="72" rx="36" fill="#6d5dfc"/><text x="204" y="592" fill="white" font-family="Arial, sans-serif" font-size="30" font-weight="900" text-anchor="middle">Start Playing</text>
</svg>
