<svg xmlns="http://www.w3.org/2000/svg" viewBox="0 0 1400 760" role="img" aria-labelledby="title desc">
  <title id="title">Arcadequiz 2026 fan prediction lab</title>
  <desc id="desc">Original neon football prediction artwork with a fantasy cup, group board, mascot-style fan stickers, and a glowing 26.</desc>
  <defs>
    <radialGradient id="bgGlow" cx="58%" cy="42%" r="70%">
      <stop offset="0" stop-color="#183a6b"/>
      <stop offset=".42" stop-color="#07142f"/>
      <stop offset="1" stop-color="#030713"/>
    </radialGradient>
    <linearGradient id="neon" x1="0" x2="1" y1="0" y2="1">
      <stop offset="0" stop-color="#67e8f9"/>
      <stop offset=".48" stop-color="#7c5cff"/>
      <stop offset="1" stop-color="#facc15"/>
    </linearGradient>
    <linearGradient id="gold" x1="0" x2="1" y1="0" y2="1">
      <stop offset="0" stop-color="#fff7ad"/>
      <stop offset=".4" stop-color="#facc15"/>
      <stop offset=".72" stop-color="#b7791f"/>
      <stop offset="1" stop-color="#fff3bf"/>
    </linearGradient>
    <filter id="softGlow" x="-30%" y="-30%" width="160%" height="160%">
      <feGaussianBlur stdDeviation="8" result="blur"/>
      <feColorMatrix in="blur" type="matrix" values="0 0 0 0 0.38 0 0 0 0 0.91 0 0 0 0 1 0 0 0 .85 0"/>
      <feMerge>
        <feMergeNode/>
        <feMergeNode in="SourceGraphic"/>
      </feMerge>
    </filter>
    <filter id="goldGlow" x="-40%" y="-40%" width="180%" height="180%">
      <feDropShadow dx="0" dy="0" stdDeviation="14" flood-color="#facc15" flood-opacity=".48"/>
      <feDropShadow dx="0" dy="18" stdDeviation="22" flood-color="#000" flood-opacity=".32"/>
    </filter>
    <clipPath id="round">
      <rect x="0" y="0" width="1400" height="760" rx="42"/>
    </clipPath>
  </defs>
  <g clip-path="url(#round)">
    <rect width="1400" height="760" fill="url(#bgGlow)"/>
    <path d="M-40 86C175-10 338 118 504 68c188-56 308-88 492 40 160 112 286 34 456-54" fill="none" stroke="#7df9ff" stroke-width="8" opacity=".75" filter="url(#softGlow)"/>
    <path d="M-30 190C164 100 312 188 506 150c212-42 314-22 494 88 128 78 252 28 430-50" fill="none" stroke="#facc15" stroke-width="5" opacity=".76"/>
    <path d="M-10 584C160 470 328 582 492 536c214-60 322-74 526 42 140 80 254 64 392-18" fill="none" stroke="#a78bfa" stroke-width="7" opacity=".78" filter="url(#softGlow)"/>

    <g opacity=".16" fill="none" stroke="#fff" stroke-width="2">
      <path d="M114 126h380v250H114z"/>
      <path d="M906 122h376v250H906z"/>
      <path d="M314 126v250M1094 122v250"/>
      <circle cx="314" cy="251" r="76"/>
      <circle cx="1094" cy="247" r="76"/>
    </g>

    <g transform="translate(102 76)">
      <rect width="440" height="306" rx="24" fill="#061225" opacity=".82" stroke="#67e8f9" stroke-opacity=".22"/>
      <text x="26" y="44" fill="#67e8f9" font-family="Arial, sans-serif" font-size="24" font-weight="900">GROUP BOARD</text>
      <g font-family="Arial, sans-serif" font-weight="900" font-size="17">
        <g transform="translate(26 74)">
          <rect width="178" height="34" rx="10" fill="#f8fafc"/><text x="16" y="23" fill="#07111f">🇲🇽 MEX</text>
          <rect y="44" width="178" height="34" rx="10" fill="#f8fafc"/><text x="16" y="67" fill="#07111f">🇨🇦 CAN</text>
          <rect y="88" width="178" height="34" rx="10" fill="#f8fafc"/><text x="16" y="111" fill="#07111f">🇧🇷 BRA</text>
          <rect y="132" width="178" height="34" rx="10" fill="#f8fafc"/><text x="16" y="155" fill="#07111f">🇺🇸 USA</text>
        </g>
        <g transform="translate(232 74)">
          <rect width="178" height="34" rx="10" fill="#f8fafc"/><text x="16" y="23" fill="#07111f">🇫🇷 FRA</text>
          <rect y="44" width="178" height="34" rx="10" fill="#f8fafc"/><text x="16" y="67" fill="#07111f">🇦🇷 ARG</text>
          <rect y="88" width="178" height="34" rx="10" fill="#f8fafc"/><text x="16" y="111" fill="#07111f">🇪🇸 ESP</text>
          <rect y="132" width="178" height="34" rx="10" fill="#f8fafc"/><text x="16" y="155" fill="#07111f">🏴 ENG</text>
        </g>
      </g>
      <rect x="26" y="256" width="386" height="28" rx="14" fill="#0f1d36"/>
      <rect x="26" y="256" width="214" height="28" rx="14" fill="url(#neon)"/>
      <text x="282" y="277" fill="#fef3c7" font-family="Arial, sans-serif" font-size="16" font-weight="900">PREDICT LIVE</text>
    </g>

    <g transform="translate(560 88)" filter="url(#goldGlow)">
      <ellipse cx="150" cy="392" rx="132" ry="24" fill="#000" opacity=".32"/>
      <path d="M150 20c42 0 70 28 70 72 0 38-18 70-44 92 8 60 28 120 72 174H52c44-54 64-114 72-174-26-22-44-54-44-92 0-44 28-72 70-72Z" fill="url(#gold)"/>
      <path d="M93 94c-40 4-62 28-58 66 5 42 42 62 76 64l6-28c-24-2-46-14-49-40-3-22 12-36 36-38Z" fill="none" stroke="#facc15" stroke-width="20" stroke-linecap="round"/>
      <path d="M207 94c40 4 62 28 58 66-5 42-42 62-76 64l-6-28c24-2 46-14 49-40 3-22-12-36-36-38Z" fill="none" stroke="#facc15" stroke-width="20" stroke-linecap="round"/>
      <rect x="88" y="340" width="124" height="42" rx="14" fill="#0f5132"/>
      <rect x="70" y="378" width="160" height="48" rx="18" fill="#facc15"/>
      <text x="150" y="409" text-anchor="middle" fill="#07111f" font-family="Arial, sans-serif" font-size="24" font-weight="900">FAN CUP</text>
    </g>

    <g transform="translate(778 350)" fill="none" stroke="url(#neon)" stroke-width="20" opacity=".9" filter="url(#softGlow)">
      <path d="M0 120C22 40 78 0 152 0c86 0 136 48 136 112 0 70-52 116-170 182h184"/>
      <path d="M374 0h232c-118 112-164 182-164 294"/>
    </g>
    <text x="812" y="690" fill="#fff" font-family="Arial, sans-serif" font-size="46" font-weight="900" opacity=".95">WORLD FAN PREDICTOR</text>

    <g transform="translate(1010 110)">
      <g transform="rotate(-8)">
        <rect width="158" height="190" rx="28" fill="#0b1831" stroke="#67e8f9" stroke-opacity=".45"/>
        <circle cx="79" cy="68" r="44" fill="#facc15"/>
        <path d="M46 92c24 36 74 34 98 0" fill="none" stroke="#07111f" stroke-width="9" stroke-linecap="round"/>
        <circle cx="62" cy="58" r="7" fill="#07111f"/><circle cx="96" cy="58" r="7" fill="#07111f"/>
        <text x="79" y="154" text-anchor="middle" fill="#fff" font-family="Arial, sans-serif" font-size="22" font-weight="900">VAR?</text>
      </g>
      <g transform="translate(164 78) rotate(9)">
        <rect width="160" height="190" rx="28" fill="#0b1831" stroke="#facc15" stroke-opacity=".52"/>
        <circle cx="80" cy="66" r="44" fill="#22c55e"/>
        <path d="M46 86c22 20 48 28 70 0" fill="none" stroke="#052e16" stroke-width="9" stroke-linecap="round"/>
        <circle cx="62" cy="58" r="7" fill="#052e16"/><circle cx="98" cy="58" r="7" fill="#052e16"/>
        <text x="80" y="154" text-anchor="middle" fill="#fff" font-family="Arial, sans-serif" font-size="20" font-weight="900">UPSET</text>
      </g>
    </g>

    <g font-family="Arial, sans-serif" font-weight="900">
      <rect x="104" y="548" width="308" height="76" rx="22" fill="#facc15"/>
      <text x="130" y="596" fill="#07111f" font-size="30">LOCK TODAY'S PICK</text>
      <rect x="430" y="548" width="218" height="76" rx="22" fill="#111c33" stroke="#67e8f9" stroke-opacity=".42"/>
      <text x="462" y="596" fill="#67e8f9" font-size="30">SHARE STREAK</text>
    </g>
  </g>
</svg>
